# Unit Cube OBJ file (single texture for all faces)
# Coordinate System: X=Right, Y=Up, Z=Forward

# Vertex positions
v -0.5 -0.5  0.5  # 1
v  0.5 -0.5  0.5  # 2
v  0.5  0.5  0.5  # 3
v -0.5  0.5  0.5  # 4
v -0.5 -0.5 -0.5  # 5
v  0.5 -0.5 -0.5  # 6
v  0.5  0.5 -0.5  # 7
v -0.5  0.5 -0.5  # 8

# Texture coordinates (same for every face)
vt 0.0 0.0  # 1
vt 1.0 0.0  # 2
vt 1.0 1.0  # 3
vt 0.0 1.0  # 4

# Normals (one per face)
vn  0.0  0.0  1.0  # Front
vn  1.0  0.0  0.0  # Right
vn  0.0  0.0 -1.0  # Back
vn -1.0  0.0  0.0  # Left
vn  0.0  1.0  0.0  # Top
vn  0.0 -1.0  0.0  # Bottom

# Faces (v/vt/vn)

# Front face (+Z)
f 1/1/1 2/2/1 3/3/1
f 1/1/1 3/3/1 4/4/1

# Right face (+X)
f 2/1/2 6/2/2 7/3/2
f 2/1/2 7/3/2 3/4/2

# Back face (-Z)
f 6/1/3 5/2/3 8/3/3
f 6/1/3 8/3/3 7/4/3

# Left face (-X)
f 5/1/4 1/2/4 4/3/4
f 5/1/4 4/3/4 8/4/4

# Top face (+Y)
f 4/1/5 3/2/5 7/3/5
f 4/1/5 7/3/5 8/4/5

# Bottom face (-Y)
f 5/1/6 6/2/6 2/3/6
f 5/1/6 2/3/6 1/4/6
